<?xml version="1.0" encoding="iso-8859-1"?>
<!-- Generator: Adobe Illustrator 14.0.0, SVG Export Plug-In . SVG Version: 6.00 Build 43363)  -->
<!DOCTYPE svg PUBLIC "-//W3C//DTD SVG 1.1//EN" "http://www.w3.org/Graphics/SVG/1.1/DTD/svg11.dtd">
<svg version="1.1" id="Layer_1" xmlns="http://www.w3.org/2000/svg" xmlns:xlink="http://www.w3.org/1999/xlink" x="0px" y="0px"
	 width="32px" height="32px" viewBox="0 0 32 32" style="enable-background:new 0 0 32 32;" xml:space="preserve">
<rect id="rect4314_2_" style="fill:#717171;fill-opacity:0;" width="32" height="32"/>
<polygon style="opacity:0.15;fill:#ACACAC;enable-background:new    ;" points="10.856,7.468 10.52,24.501 21.707,24.894 
	21.395,7.515 "/>
<g style="opacity:0.6;">
	<path style="fill-opacity:0.9882;" d="M22.193,8.042c-0.086-0.318-0.318-0.582-0.627-0.707c-0.221-0.089-1.539-0.533-5.579-0.533
		c-4.025,0-5.407,0.472-5.536,0.521C10.113,7.445,9.86,7.725,9.78,8.081C9.744,8.244,9.427,9.862,9.427,16.81
		c0,6.951,0.316,8.568,0.353,8.732c0.077,0.34,0.317,0.617,0.632,0.742c0.138,0.057,1.457,0.539,5.588,0.539
		c4.086,0,5.371-0.457,5.58-0.543c0.299-0.125,0.527-0.391,0.611-0.699c0.061-0.238,0.381-1.779,0.381-8.773
		C22.572,9.814,22.254,8.273,22.193,8.042z M11.326,8.781c0.576-0.123,1.978-0.344,4.66-0.344c2.754,0,4.125,0.22,4.672,0.34
		c0.092,0.71,0.275,2.772,0.275,8.03c0,1.783-0.021,3.189-0.053,4.313c-0.496,0.125-1.879,0.383-4.876,0.383
		c-2.974,0-4.38-0.26-4.892-0.385c-0.03-1.125-0.051-2.533-0.051-4.313C11.062,11.626,11.238,9.515,11.326,8.781L11.326,8.781z
		 M15.999,25.185c-2.732,0-4.112-0.221-4.673-0.342c-0.049-0.42-0.127-1.275-0.185-2.881c0.711,0.15,2.178,0.357,4.863,0.357
		c2.705,0,4.146-0.201,4.852-0.355c-0.063,1.629-0.146,2.477-0.197,2.881C20.115,24.964,18.756,25.185,15.999,25.185z"/>
	<path style="fill-opacity:0.9882;" d="M15.998,22.677c-0.543,0-0.986,0.441-0.986,0.988c0,0.543,0.443,0.984,0.986,0.984
		c0.545,0,0.989-0.441,0.989-0.984C16.986,23.12,16.543,22.677,15.998,22.677z M15.831,23.667c0-0.096,0.075-0.17,0.167-0.17
		c0.094,0,0.17,0.076,0.17,0.17C16.167,23.851,15.828,23.851,15.831,23.667z"/>
</g>
<path style="fill:#FFFFFF;fill-opacity:0.9882;" d="M22.193,7.228c-0.086-0.316-0.318-0.582-0.627-0.707
	c-0.221-0.089-1.539-0.531-5.579-0.531c-4.025,0-5.407,0.471-5.536,0.521C10.113,6.632,9.86,6.913,9.78,7.268
	c-0.036,0.163-0.353,1.781-0.353,8.729c0,6.951,0.316,8.566,0.353,8.73c0.077,0.342,0.317,0.617,0.632,0.742
	c0.138,0.059,1.457,0.539,5.588,0.539c4.086,0,5.371-0.457,5.58-0.543c0.299-0.125,0.527-0.389,0.611-0.699
	c0.061-0.236,0.381-1.777,0.381-8.771C22.572,9.002,22.254,7.46,22.193,7.228z M11.326,7.967c0.576-0.123,1.978-0.342,4.66-0.342
	c2.754,0,4.125,0.218,4.672,0.338c0.092,0.71,0.275,2.774,0.275,8.032c0,1.783-0.021,3.188-0.053,4.313
	c-0.496,0.125-1.879,0.385-4.876,0.385c-2.974,0-4.38-0.262-4.892-0.387c-0.03-1.125-0.051-2.531-0.051-4.313
	C11.062,10.813,11.238,8.704,11.326,7.967L11.326,7.967z M15.999,24.374c-2.732,0-4.112-0.221-4.673-0.342
	c-0.049-0.42-0.127-1.277-0.185-2.881c0.711,0.148,2.178,0.355,4.863,0.355c2.705,0,4.146-0.201,4.852-0.354
	c-0.063,1.629-0.146,2.477-0.197,2.881C20.115,24.153,18.756,24.374,15.999,24.374z"/>
<path style="fill:#FFFFFF;fill-opacity:0.9882;" d="M15.998,21.866c-0.543,0-0.986,0.439-0.986,0.986
	c0,0.543,0.443,0.984,0.986,0.984c0.545,0,0.989-0.441,0.989-0.984C16.986,22.306,16.543,21.866,15.998,21.866z M15.831,22.853
	c0-0.096,0.075-0.17,0.167-0.17c0.094,0,0.17,0.076,0.17,0.17C16.167,23.04,15.828,23.04,15.831,22.853z"/>
</svg>
